<mxfile host="app.diagrams.net" modified="2022-09-15T17:38:36.600Z" agent="5.0 (Windows NT 10.0; Win64; x64) AppleWebKit/537.36 (KHTML, like Gecko) Chrome/105.0.0.0 Safari/537.36" etag="krZdeGgNP1hWCZWui3eq" version="20.0.4" type="github">
  <diagram id="C5RBs43oDa-KdzZeNtuy" name="Page-1">
    <mxGraphModel dx="1422" dy="762" grid="1" gridSize="10" guides="1" tooltips="1" connect="1" arrows="1" fold="1" page="1" pageScale="1" pageWidth="827" pageHeight="1169" math="0" shadow="0">
      <root>
        <mxCell id="WIyWlLk6GJQsqaUBKTNV-0" />
        <mxCell id="WIyWlLk6GJQsqaUBKTNV-1" parent="WIyWlLk6GJQsqaUBKTNV-0" />
        <mxCell id="-jnsl_CoM5FNMp7R_Cmq-15" value="&lt;span style=&quot;color: rgb(29, 28, 29); font-family: Slack-Lato, Slack-Fractions, appleLogo, sans-serif; font-size: 15px; font-variant-ligatures: common-ligatures; text-align: left; background-color: rgba(242, 199, 68, 0.1);&quot;&gt;Modellizzare la struttura di una tabella per memorizzare tutti i dati riguardanti delle auto usate messe in vendita da &lt;br&gt;un concessionario. Quando avrete completato il disegno, caricatelo come immagine dentro il repository.&lt;/span&gt;" style="text;html=1;align=center;verticalAlign=middle;resizable=0;points=[];autosize=1;strokeColor=none;fillColor=none;" vertex="1" parent="WIyWlLk6GJQsqaUBKTNV-1">
          <mxGeometry x="24" y="30" width="780" height="50" as="geometry" />
        </mxCell>
        <mxCell id="-jnsl_CoM5FNMp7R_Cmq-17" value="used cars" style="swimlane;fontStyle=0;childLayout=stackLayout;horizontal=1;startSize=30;fillColor=none;horizontalStack=0;resizeParent=1;resizeParentMax=0;resizeLast=0;collapsible=1;marginBottom=0;" vertex="1" parent="WIyWlLk6GJQsqaUBKTNV-1">
          <mxGeometry x="240" y="100" width="260" height="370" as="geometry" />
        </mxCell>
        <mxCell id="-jnsl_CoM5FNMp7R_Cmq-22" value="Brand  VARCHAR(20)" style="text;strokeColor=none;fillColor=none;align=left;verticalAlign=top;spacingLeft=4;spacingRight=4;overflow=hidden;rotatable=0;points=[[0,0.5],[1,0.5]];portConstraint=eastwest;" vertex="1" parent="-jnsl_CoM5FNMp7R_Cmq-17">
          <mxGeometry y="30" width="260" height="26" as="geometry" />
        </mxCell>
        <mxCell id="-jnsl_CoM5FNMp7R_Cmq-23" value="Model VARCHAR(40)" style="text;strokeColor=none;fillColor=none;align=left;verticalAlign=top;spacingLeft=4;spacingRight=4;overflow=hidden;rotatable=0;points=[[0,0.5],[1,0.5]];portConstraint=eastwest;" vertex="1" parent="-jnsl_CoM5FNMp7R_Cmq-17">
          <mxGeometry y="56" width="260" height="26" as="geometry" />
        </mxCell>
        <mxCell id="-jnsl_CoM5FNMp7R_Cmq-20" value="Price  FLOAT(9, 2)" style="text;strokeColor=none;fillColor=none;align=left;verticalAlign=top;spacingLeft=4;spacingRight=4;overflow=hidden;rotatable=0;points=[[0,0.5],[1,0.5]];portConstraint=eastwest;" vertex="1" parent="-jnsl_CoM5FNMp7R_Cmq-17">
          <mxGeometry y="82" width="260" height="26" as="geometry" />
        </mxCell>
        <mxCell id="-jnsl_CoM5FNMp7R_Cmq-25" value="Matriculation  SMALLINT" style="text;strokeColor=none;fillColor=none;align=left;verticalAlign=top;spacingLeft=4;spacingRight=4;overflow=hidden;rotatable=0;points=[[0,0.5],[1,0.5]];portConstraint=eastwest;" vertex="1" parent="-jnsl_CoM5FNMp7R_Cmq-17">
          <mxGeometry y="108" width="260" height="26" as="geometry" />
        </mxCell>
        <mxCell id="-jnsl_CoM5FNMp7R_Cmq-26" value="Transmission type  VARCHAR(20)" style="text;strokeColor=none;fillColor=none;align=left;verticalAlign=top;spacingLeft=4;spacingRight=4;overflow=hidden;rotatable=0;points=[[0,0.5],[1,0.5]];portConstraint=eastwest;" vertex="1" parent="-jnsl_CoM5FNMp7R_Cmq-17">
          <mxGeometry y="134" width="260" height="26" as="geometry" />
        </mxCell>
        <mxCell id="-jnsl_CoM5FNMp7R_Cmq-30" value="Mileage  MEDIUMINT" style="text;strokeColor=none;fillColor=none;align=left;verticalAlign=top;spacingLeft=4;spacingRight=4;overflow=hidden;rotatable=0;points=[[0,0.5],[1,0.5]];portConstraint=eastwest;" vertex="1" parent="-jnsl_CoM5FNMp7R_Cmq-17">
          <mxGeometry y="160" width="260" height="26" as="geometry" />
        </mxCell>
        <mxCell id="-jnsl_CoM5FNMp7R_Cmq-29" value="Fuel type  VARCHAR(30)" style="text;strokeColor=none;fillColor=none;align=left;verticalAlign=top;spacingLeft=4;spacingRight=4;overflow=hidden;rotatable=0;points=[[0,0.5],[1,0.5]];portConstraint=eastwest;" vertex="1" parent="-jnsl_CoM5FNMp7R_Cmq-17">
          <mxGeometry y="186" width="260" height="26" as="geometry" />
        </mxCell>
        <mxCell id="-jnsl_CoM5FNMp7R_Cmq-31" value="Car shape  VARCHAR(20)" style="text;strokeColor=none;fillColor=none;align=left;verticalAlign=top;spacingLeft=4;spacingRight=4;overflow=hidden;rotatable=0;points=[[0,0.5],[1,0.5]];portConstraint=eastwest;" vertex="1" parent="-jnsl_CoM5FNMp7R_Cmq-17">
          <mxGeometry y="212" width="260" height="28" as="geometry" />
        </mxCell>
        <mxCell id="-jnsl_CoM5FNMp7R_Cmq-24" value="Power  VARCHAR(20)" style="text;strokeColor=none;fillColor=none;align=left;verticalAlign=top;spacingLeft=4;spacingRight=4;overflow=hidden;rotatable=0;points=[[0,0.5],[1,0.5]];portConstraint=eastwest;" vertex="1" parent="-jnsl_CoM5FNMp7R_Cmq-17">
          <mxGeometry y="240" width="260" height="26" as="geometry" />
        </mxCell>
        <mxCell id="-jnsl_CoM5FNMp7R_Cmq-32" value="Number of porters  TINYINT" style="text;strokeColor=none;fillColor=none;align=left;verticalAlign=top;spacingLeft=4;spacingRight=4;overflow=hidden;rotatable=0;points=[[0,0.5],[1,0.5]];portConstraint=eastwest;" vertex="1" parent="-jnsl_CoM5FNMp7R_Cmq-17">
          <mxGeometry y="266" width="260" height="26" as="geometry" />
        </mxCell>
        <mxCell id="-jnsl_CoM5FNMp7R_Cmq-34" value="Number of seats  TINYINT" style="text;strokeColor=none;fillColor=none;align=left;verticalAlign=top;spacingLeft=4;spacingRight=4;overflow=hidden;rotatable=0;points=[[0,0.5],[1,0.5]];portConstraint=eastwest;" vertex="1" parent="-jnsl_CoM5FNMp7R_Cmq-17">
          <mxGeometry y="292" width="260" height="26" as="geometry" />
        </mxCell>
        <mxCell id="-jnsl_CoM5FNMp7R_Cmq-36" value="Color  VARCHAR(20)" style="text;strokeColor=none;fillColor=none;align=left;verticalAlign=top;spacingLeft=4;spacingRight=4;overflow=hidden;rotatable=0;points=[[0,0.5],[1,0.5]];portConstraint=eastwest;" vertex="1" parent="-jnsl_CoM5FNMp7R_Cmq-17">
          <mxGeometry y="318" width="260" height="26" as="geometry" />
        </mxCell>
        <mxCell id="-jnsl_CoM5FNMp7R_Cmq-37" value="Paint type  VARCHAR(20)" style="text;strokeColor=none;fillColor=none;align=left;verticalAlign=top;spacingLeft=4;spacingRight=4;overflow=hidden;rotatable=0;points=[[0,0.5],[1,0.5]];portConstraint=eastwest;" vertex="1" parent="-jnsl_CoM5FNMp7R_Cmq-17">
          <mxGeometry y="344" width="260" height="26" as="geometry" />
        </mxCell>
      </root>
    </mxGraphModel>
  </diagram>
</mxfile>
